<svg xmlns="http://www.w3.org/2000/svg" fill="none" viewBox="0 0 16 16"><g clip-path="url(#a)"><path fill="#fff" fill-rule="evenodd" d="m12.38 13.42-2.5-2.5a2 2 0 0 1-2.42-.3L5.33 8.48a2 2 0 0 1-.3-2.43l-2.5-2.5a4 4 0 0 0 .33 5.28L7.1 13.1a4 4 0 0 0 5.28.33Zm1.09.37a5 5 0 0 1-7.07 0L2.14 9.55a5 5 0 0 1 0-7.07L4.27.36l3.9 3.89-2.13 2.12a1 1 0 0 0 0 1.41l2.12 2.13a1 1 0 0 0 1.42 0l2.12-2.13 3.89 3.9-2.12 2.11Zm.7-2.12-1.06 1.06-2.47-2.47L11.7 9.2l2.47 2.47ZM5.7 5.31l1.06-1.06-2.48-2.48-1.06 1.06L5.7 5.31Z" clip-rule="evenodd"/></g><defs><clipPath id="a"><path fill="#fff" d="M0 0h16v16H0z"/></clipPath></defs></svg>