<svg xmlns="http://www.w3.org/2000/svg" width="72" height="72" fill="none">
  <g class="less-work-hand">
    <path fill="currentColor" d="M19 58V29h-9v29h9Z" />
    <path stroke="#000" stroke-linejoin="round" stroke-width="2"
      d="M19 58V29m0 29h-9V29h9m0 29h24.2c4.1 0 5.6-2.7 5.9-4L52 37h11.6c1.1 0 2.2-.4 3-1.1.9-.8 1.3-2 1.3-3 0-.5 0-1-.3-1.5a3 3 0 0 0-1-1.3 4.4 4.4 0 0 0-1.4-.8 4.8 4.8 0 0 0-1.6-.3H34.2c0-3.6 7.6-6 7.6-10.6 0-4.7-2.7-5.5-5.2-3.6C35 16 29.3 20.5 19 29" />
  </g>
  <path stroke="#000" stroke-linecap="round" stroke-width="2" d="M33 2v8m3 2 4-4m-10 4-4-4" class="sparkle" />

  <style>
    .less-work-hand {
      transition: transform 400ms cubic-bezier(1, -0.7, 0, 1.5);
      transform-origin: 50% 50%;
    }
    .sparkle {
      stroke-dasharray: 8px;
      stroke-dashoffset: 24px;
      transition: 0;
    }

    .pro:hover .less-work-hand {
      transform: rotate(-45deg);
    }
    .pro:hover .sparkle {
      stroke-dashoffset: 8px;
      transition: stroke-dashoffset 500ms 250ms ease-in-out;
    }
  </style>
</svg>