<svg xmlns="http://www.w3.org/2000/svg" width="72" height="72" fill="none"><g clip-path="url(#a)"><path fill="#9DAFFF" d="M19 58V29h-9v29h9Z"/><path stroke="#000" stroke-linejoin="round" stroke-width="2" d="M19 58V29m0 29h-9V29h9m0 29h24.187c4.16 0 5.606-2.686 5.879-4.04.18-.903 1.148-6.626 2.9-16.96H63.58c1.155 0 2.263-.41 3.08-1.14.817-.73 1.276-1.934 1.276-2.966v-.004c0-.511-.114-1.017-.333-1.489-.219-.471-.54-.9-.944-1.261a4.42 4.42 0 0 0-1.413-.842 4.803 4.803 0 0 0-1.666-.294c-19.605.018-29.407.017-29.402-.004 0-3.567 7.664-5.949 7.664-10.63 0-4.682-2.784-5.468-5.25-3.597C34.95 16.02 29.329 20.549 19 29"/><path stroke="#000" stroke-linecap="round" stroke-width="2" d="M33 2v8m3 2 4-4m-10 4-4-4" opacity=".01"/></g><defs><clipPath id="a"><path fill="#fff" d="M0 0h72v72H0z"/></clipPath></defs></svg>