<svg xmlns="http://www.w3.org/2000/svg" width="72" height="72" fill="none">
  <circle cx="33" cy="16" r="13" fill="#9DAFFF" stroke="#000" stroke-width="2" />
  <circle cx="39" cy="16" r="13" fill="#fff" stroke="#000" stroke-width="2" />
  <path stroke="#000" stroke-linecap="round" stroke-linejoin="round" stroke-width="2" d="M39 9.6c-2.2 0-4 1.43-4 3.2 0 1.77 1.8 3.2 4 3.2s4 1.43 4 3.2c0 1.77-1.8 3.2-4 3.2m0-12.8c1.48 0 2.77.64 3.47 1.6M39 9.6V8m0 1.6v12.8m0 0V24m0-1.6a4.26 4.26 0 0 1-3.47-1.6" />
  <g class="person -left">
    <path fill="#9DAFFF" fill-rule="evenodd" d="M44.2 58s-4.95 2-8.2 2c-3.25 0-8.2-2-8.2-2-2.57 1.52-5.71 4.1-5.8 6-.14 2.97 12.33 3 14 3h.11c2.2 0 14.03 0 13.89-3-.09-1.9-3.23-4.48-5.8-6Z" clip-rule="evenodd" />
    <path stroke="#000" stroke-width="2" d="M40.34 53s-3.1 3-4.34 3c-1.24 0-4.34-3-4.34-3m8.68 0s2.9-6 2.9-8.5c0-6.35.48-10.5-7.24-10.5-7.72 0-7.24 4.15-7.24 10.5 0 2.5 2.9 8.5 2.9 8.5m8.68 0c0 2.73 1.26 3.45 3.87 5m0 0c2.56 1.52 5.7 4.1 5.79 6 .14 3-11.68 3-13.89 3H36c-1.67 0-14.14-.03-14-3 .09-1.9 3.23-4.48 5.8-6m16.4 0s-4.95 2-8.2 2c-3.25 0-8.2-2-8.2-2m3.86-5c0 2.73-1.26 3.45-3.87 5" />
  </g>
  <g class="person -right">
    <path fill="#9DAFFF" fill-rule="evenodd" d="M44.2 58s-4.95 2-8.2 2c-3.25 0-8.2-2-8.2-2-2.57 1.52-5.71 4.1-5.8 6-.14 2.97 12.33 3 14 3h.11c2.2 0 14.03 0 13.89-3-.09-1.9-3.23-4.48-5.8-6Z" clip-rule="evenodd" />
    <path stroke="#000" stroke-width="2" d="M40.34 53s-3.1 3-4.34 3c-1.24 0-4.34-3-4.34-3m8.68 0s2.9-6 2.9-8.5c0-6.35.48-10.5-7.24-10.5-7.72 0-7.24 4.15-7.24 10.5 0 2.5 2.9 8.5 2.9 8.5m8.68 0c0 2.73 1.26 3.45 3.87 5m0 0c2.56 1.52 5.7 4.1 5.79 6 .14 3-11.68 3-13.89 3H36c-1.67 0-14.14-.03-14-3 .09-1.9 3.23-4.48 5.8-6m16.4 0s-4.95 2-8.2 2c-3.25 0-8.2-2-8.2-2m3.86-5c0 2.73-1.26 3.45-3.87 5" />
  </g>
  <g class="person">
    <path fill="#9DAFFF" fill-rule="evenodd" d="M44.2 58s-4.95 2-8.2 2c-3.25 0-8.2-2-8.2-2-2.57 1.52-5.71 4.1-5.8 6-.14 2.97 12.33 3 14 3h.11c2.2 0 14.03 0 13.89-3-.09-1.9-3.23-4.48-5.8-6Z" clip-rule="evenodd" />
    <path stroke="#000" stroke-width="2" d="M40.34 53s-3.1 3-4.34 3c-1.24 0-4.34-3-4.34-3m8.68 0s2.9-6 2.9-8.5c0-6.35.48-10.5-7.24-10.5-7.72 0-7.24 4.15-7.24 10.5 0 2.5 2.9 8.5 2.9 8.5m8.68 0c0 2.73 1.26 3.45 3.87 5m0 0c2.56 1.52 5.7 4.1 5.79 6 .14 3-11.68 3-13.89 3H36c-1.67 0-14.14-.03-14-3 .09-1.9 3.23-4.48 5.8-6m16.4 0s-4.95 2-8.2 2c-3.25 0-8.2-2-8.2-2m3.86-5c0 2.73-1.26 3.45-3.87 5" />
  </g>

  <style>
    .person {
      transform-origin: 50% 50%;
      transition: transform 250ms cubic-bezier(0.3, 0.2, 0.5, 1.25);
    }

    .person.-left {
      --translate-direction: -1;
    }

    .person.-right {
      --translate-direction: 1;
    }

    .pro:hover .person {
      transform: translate(calc(var(--translate-direction) * 20px), -2px);
    }
  </style>
</svg>