<svg xmlns="http://www.w3.org/2000/svg" width="72" height="72" fill="none"><g clip-path="url(#a)"><path fill="#fff" d="M17 6a4 4 0 0 1 4-4h36a4 4 0 0 1 4 4v60a4 4 0 0 1-4 4H21a4 4 0 0 1-4-4V6Z"/><path stroke="#000" stroke-linecap="round" stroke-width="2" d="M27 60.14h24m-24-6.9h24m-26-39.4v-.96c0-1.1.9-2 2-2h18M21 70h36a4 4 0 0 0 4-4V6a4 4 0 0 0-4-4H21a4 4 0 0 0-4 4v60a4 4 0 0 0 4 4Z"/><path fill="#9DAFFF" stroke="#000" stroke-width="2" d="M54 32h14v7H54v-7Z"/><path fill="#fff" d="M12.38 31.93a1 1 0 0 0-.1.16l-4.57 8.93 10.58 8.32 8-2.9a1 1 0 0 0 .21-.12l11.36-7.68a1 1 0 0 0 .28-.28l1.69-2.57a1 1 0 0 0-.44-1.47l-3.08-1.31a1 1 0 0 0-.83.01l-10.62 5.05a1 1 0 0 1-.61.08l-2.92-.54a1 1 0 0 1-.7-1.43l4.83-9.78a1 1 0 0 1 .52-.49l14.98-6.01a1 1 0 0 0 .5-1.43l-1.3-2.26a1 1 0 0 0-1.1-.48l-16.83 3.75a1 1 0 0 0-.57.37l-9.28 12.08Z"/><path fill="#9DAFFF" d="M18.3 49.34 7.7 41.02 6.42 40a1 1 0 0 0-1.43.21L2 44.43a1 1 0 0 0 .2 1.36l11.12 8.75a1 1 0 0 0 1.44-.2l3.52-5Z"/><path stroke="#000" stroke-width="2" d="m7.71 41.02 4.57-8.93a1 1 0 0 1 .1-.16l9.28-12.08a1 1 0 0 1 .57-.37l16.84-3.75a1 1 0 0 1 1.08.48l1.3 2.26a1 1 0 0 1-.49 1.43l-14.98 6a1 1 0 0 0-.52.49l-4.84 9.78a1 1 0 0 0 .71 1.43l2.92.54a1 1 0 0 0 .61-.08l10.62-5.05a1 1 0 0 1 .83-.01l3.08 1.31a1 1 0 0 1 .44 1.47l-1.7 2.57a1 1 0 0 1-.27.28L26.5 46.32a1 1 0 0 1-.21.11l-8 2.91M7.71 41.02l10.58 8.32M7.71 41.02 6.42 40a1 1 0 0 0-1.43.21L2 44.43a1 1 0 0 0 .2 1.36l11.12 8.75a1 1 0 0 0 1.44-.2l3.52-5"/></g><defs><clipPath id="a"><path fill="#fff" d="M0 0h72v72H0z"/></clipPath></defs></svg>